<svg xmlns="http://www.w3.org/2000/svg" width="58" height="59" viewBox="0 0 58 59" fill="none">
  <path d="M29.0113 16.4727C21.8066 16.4727 15.9953 22.284 15.9953 29.4887C15.9953 36.6934 21.8066 42.5047 29.0113 42.5047C36.216 42.5047 42.0273 36.6934 42.0273 29.4887C42.0273 22.284 36.216 16.4727 29.0113 16.4727ZM29.0113 37.9508C24.3554 37.9508 20.5492 34.1559 20.5492 29.4887C20.5492 24.8215 24.3441 21.0266 29.0113 21.0266C33.6785 21.0266 37.4734 24.8215 37.4734 29.4887C37.4734 34.1559 33.6671 37.9508 29.0113 37.9508ZM45.5957 15.9403C45.5957 17.6282 44.2363 18.9762 42.5597 18.9762C40.8718 18.9762 39.5238 17.6168 39.5238 15.9403C39.5238 14.2637 40.8832 12.9043 42.5597 12.9043C44.2363 12.9043 45.5957 14.2637 45.5957 15.9403ZM54.2164 19.0215C54.0238 14.9547 53.0949 11.3524 50.1156 8.38442C47.1476 5.41645 43.5453 4.48755 39.4785 4.28364C35.2871 4.04575 22.7242 4.04575 18.5328 4.28364C14.4773 4.47622 10.875 5.40513 7.89565 8.3731C4.91636 11.3411 3.99878 14.9434 3.79487 19.0102C3.55698 23.2016 3.55698 35.7645 3.79487 39.9559C3.98745 44.0227 4.91636 47.6251 7.89565 50.593C10.875 53.561 14.466 54.4899 18.5328 54.6938C22.7242 54.9317 35.2871 54.9317 39.4785 54.6938C43.5453 54.5012 47.1476 53.5723 50.1156 50.593C53.0835 47.6251 54.0125 44.0227 54.2164 39.9559C54.4543 35.7645 54.4543 23.2129 54.2164 19.0215ZM48.8015 44.4532C47.9179 46.6735 46.2074 48.384 43.9757 49.279C40.6339 50.6043 32.7042 50.2985 29.0113 50.2985C25.3183 50.2985 17.3773 50.593 14.0468 49.279C11.8265 48.3954 10.116 46.6848 9.22105 44.4532C7.89565 41.1114 8.20151 33.1817 8.20151 29.4887C8.20151 25.7958 7.90698 17.8547 9.22105 14.5243C10.1046 12.304 11.8152 10.5934 14.0468 9.69849C17.3886 8.3731 25.3183 8.67896 29.0113 8.67896C32.7042 8.67896 40.6453 8.38442 43.9757 9.69849C46.196 10.5821 47.9066 12.2926 48.8015 14.5243C50.1269 17.8661 49.821 25.7958 49.821 29.4887C49.821 33.1817 50.1269 41.1227 48.8015 44.4532Z" fill="#DD3E6E"/>
</svg>