<svg xmlns="http://www.w3.org/2000/svg" width="44" height="45" viewBox="0 0 44 45" fill="none">
  <path d="M25.7729 19.3402L43.0498 44.4835H31.1611L19.3134 27.2414L18.9457 26.7063L18.5223 27.1985L3.65233 44.4835H1.08974L17.5571 25.3428L17.8082 25.0509L17.5901 24.7335L0.950217 0.516602H12.8389L24.0496 16.8323L24.4173 17.3674L24.8407 16.8752L38.9139 0.516602H41.4763L25.9566 18.557H25.2348L25.7729 19.3402ZM5.2804 2.43873H4.32078L4.87062 3.22521L18.7191 23.034L19.1289 22.7475L18.7191 23.034L20.3694 25.3944V25.3954L20.4596 25.5244L32.3143 42.4807L32.4636 42.6943H32.7241H38.6863H39.6459L39.0961 41.9078L24.5687 21.128L24.1589 21.4145L24.5687 21.128L22.8282 18.6386L22.8282 18.6385L11.6523 2.65225L11.5031 2.43873H11.2425H5.2804Z" fill="black" stroke="black"/>
</svg>